<svg xmlns="http://www.w3.org/2000/svg" width="92.856" height="92.862" viewBox="0 0 92.856 92.862"><defs><style>.a{fill:#4a4a4a;stroke:#fff;stroke-width:1.5px;}</style></defs><g transform="translate(0.732 0.75)"><path class="a" d="M2.694,64.595h40.7A18.736,18.736,0,0,0,68.229,79.566l9.442,9.442A8.029,8.029,0,0,0,89.026,77.653l-9.442-9.442a18.733,18.733,0,0,0-9.618-23.219V2.677A2.677,2.677,0,0,0,67.289,0H2.695A2.677,2.677,0,0,0,.018,2.677V61.918A2.676,2.676,0,0,0,2.694,64.595ZM85.241,81.439a2.676,2.676,0,0,1-3.785,3.785l-8.305-8.305a18.892,18.892,0,0,0,3.785-3.785Zm-9.922-19.52A13.383,13.383,0,1,1,61.936,48.535,13.4,13.4,0,0,1,75.319,61.918ZM61.936,43.182A18.764,18.764,0,0,0,43.392,59.242H5.371V16.059H64.613V43.374A18.811,18.811,0,0,0,61.936,43.182Zm2.677-32.476H59.26V5.353h5.353ZM53.906,5.353v5.353H5.371V5.353Z"/><path class="a" d="M174.889,152.135a2.677,2.677,0,0,0-3.386,1.693l-5.353,16.059a2.677,2.677,0,1,0,5.079,1.693l5.353-16.059A2.676,2.676,0,0,0,174.889,152.135Z" transform="translate(-136.375 -124.875)"/><path class="a" d="M75.732,153.086a2.676,2.676,0,0,0-3.743-.565L61.1,160.551a2.676,2.676,0,0,0,0,4.308l10.885,8.03a2.677,2.677,0,1,0,3.178-4.308L67.2,162.7l7.965-5.876A2.677,2.677,0,0,0,75.732,153.086Z" transform="translate(-49.293 -124.876)"/><path class="a" d="M257.005,160.565l-10.706-8.03a2.677,2.677,0,1,0-3.212,4.283l7.851,5.888-7.851,5.888a2.677,2.677,0,1,0,3.212,4.283l10.706-8.03a2.677,2.677,0,0,0,0-4.283Z" transform="translate(-198.816 -124.877)"/></g></svg>