<svg xmlns="http://www.w3.org/2000/svg" width="82.161" height="82.161" viewBox="0 0 82.161 82.161"><defs><style>.a{fill:#4a4a4a;stroke:#fff;stroke-width:1.5px;}</style></defs><g transform="translate(0.75 0.75)"><g transform="translate(11.816)"><path class="a" d="M84.452,0A9.58,9.58,0,0,0,75,9.61a9.452,9.452,0,0,0,18.9,0A9.581,9.581,0,0,0,84.452,0Zm0,14.336A4.732,4.732,0,0,1,79.726,9.61a4.729,4.729,0,1,1,9.452,0A4.732,4.732,0,0,1,84.452,14.336Z" transform="translate(-75)"/></g><path class="a" d="M73.572,0h-33.4a7.1,7.1,0,0,0-7.089,7.089V23.216l-2.077-2.077a7.042,7.042,0,0,0-5.012-2.077H11.816A11.829,11.829,0,0,0,0,30.878V45.057a7.091,7.091,0,0,0,9.452,6.684v21.83a7.086,7.086,0,0,0,11.816,5.28,7.086,7.086,0,0,0,11.816-5.28V42.291a7.117,7.117,0,0,0,5.534-.345l7.957-3.978h27a7.1,7.1,0,0,0,7.089-7.089V7.089A7.1,7.1,0,0,0,73.572,0ZM45.956,32.992l-9.45,4.725a2.362,2.362,0,0,1-2.731-.442l-1.384-1.384a2.364,2.364,0,0,0-4.034,1.664s0,0,0,.007V73.572a2.363,2.363,0,0,1-4.726,0V49.783a2.363,2.363,0,1,0-4.726,0V73.572a2.363,2.363,0,0,1-4.726,0V30.878a2.363,2.363,0,0,0-4.726,0V45.057a2.363,2.363,0,0,1-4.726,0c0-1.782,0-12.722,0-14.179a7.1,7.1,0,0,1,7.089-7.089H25.994a2.347,2.347,0,0,1,1.671.693l7.043,7.043a2.363,2.363,0,0,0,2.728.443l6.407-3.2a2.364,2.364,0,0,1,2.113,4.229Zm29.979-2.114a2.366,2.366,0,0,1-2.363,2.363H51.582c.014-.04.03-.08.044-.121A7.062,7.062,0,0,0,51.938,30l12.923-6.462a2.363,2.363,0,0,0-2.114-4.227L49.825,25.773a7.083,7.083,0,0,0-8.1-1.237L37.81,26.5V7.089a2.366,2.366,0,0,1,2.363-2.363h33.4a2.366,2.366,0,0,1,2.363,2.363Z"/></g></svg>