<svg xmlns="http://www.w3.org/2000/svg" width="74.709" height="68.608" viewBox="0 0 74.709 68.608"><defs><style>.a{fill:#4a4a4a;stroke:#fff;stroke-width:1.5px;}</style></defs><g transform="translate(0.75 -0.25)"><path class="a" d="M8.289,34.4A2.289,2.289,0,0,1,6.673,30.5L14.967,22.2l-8.3-8.3A2.289,2.289,0,1,1,9.906,10.67l9.914,9.914a2.288,2.288,0,0,1,0,3.236L9.906,33.733a2.27,2.27,0,0,1-1.617.671Z" transform="translate(12.301 18.452)"/><path class="a" d="M28.014,21.076H14.288a2.288,2.288,0,0,1,0-4.576H28.014a2.288,2.288,0,1,1,0,4.576Z" transform="translate(24.605 31.781)"/><path class="a" d="M64.821,68.108H8.389A8.4,8.4,0,0,1,0,59.72V9.389A8.4,8.4,0,0,1,8.389,1H64.821a8.4,8.4,0,0,1,8.389,8.389V59.72A8.4,8.4,0,0,1,64.821,68.108ZM8.389,5.576A3.818,3.818,0,0,0,4.576,9.389V59.72a3.818,3.818,0,0,0,3.813,3.813H64.821a3.818,3.818,0,0,0,3.813-3.813V9.389a3.818,3.818,0,0,0-3.813-3.813Z" transform="translate(0 0)"/><path class="a" d="M70.921,9.076H2.288a2.288,2.288,0,1,1,0-4.576H70.921a2.288,2.288,0,1,1,0,4.576Z" transform="translate(0 7.176)"/></g></svg>