<svg xmlns="http://www.w3.org/2000/svg" width="92.966" height="81.175" viewBox="0 0 92.966 81.175"><defs><style>.a{fill:#4a4a4a;stroke:#fff;stroke-width:1.5px;}</style></defs><g transform="translate(0.75 -32.25)"><path class="a" d="M84.142,74.055a8.049,8.049,0,0,0,7.324-8.006V41.039A8.048,8.048,0,0,0,83.427,33H56.809a8.048,8.048,0,0,0-8.039,8.039v10.54H15.363a8.048,8.048,0,0,0-8.039,8.039V91.774a8,8,0,0,0,.461,2.68H4.823A4.829,4.829,0,0,0,0,99.277a13.414,13.414,0,0,0,13.4,13.4H78.068a13.414,13.414,0,0,0,13.4-13.4,4.829,4.829,0,0,0-4.823-4.823H83.681a8,8,0,0,0,.461-2.68ZM54.129,41.039a2.683,2.683,0,0,1,2.68-2.68H83.427a2.683,2.683,0,0,1,2.68,2.68v25.01a2.683,2.683,0,0,1-2.68,2.68H58.6a2.679,2.679,0,0,0-1.42.407l-5.4,3.377,2.244-7.48a2.682,2.682,0,0,0,.113-.77Zm23.938,66.277H13.4a8.05,8.05,0,0,1-8.021-7.5H86.089A8.05,8.05,0,0,1,78.068,107.316ZM25.546,74.267A3.037,3.037,0,1,1,28.583,77.3,3.04,3.04,0,0,1,25.546,74.267ZM24.117,85.7c0-1.618,2.087-3.037,4.466-3.037a5.47,5.47,0,0,1,3.373,1.092A2.638,2.638,0,0,1,33.049,85.7v8.754H24.117Zm14.292,8.754V85.7a7.9,7.9,0,0,0-3.1-6.13c-.044-.036-.091-.069-.136-.1a8.4,8.4,0,1,0-13.166,0A7.9,7.9,0,0,0,18.758,85.7v8.754H15.363a2.683,2.683,0,0,1-2.68-2.68V59.618a2.683,2.683,0,0,1,2.68-2.68H48.77V63.87l-2.131,7.1a5.352,5.352,0,0,0,7.973,6.085l4.752-2.97H78.782V91.774a2.683,2.683,0,0,1-2.68,2.68Z"/><path class="a" d="M369.4,169H363.68a2.68,2.68,0,1,0,0,5.359H369.4a2.68,2.68,0,0,0,0-5.359Z" transform="translate(-296.509 -111.704)"/><path class="a" d="M339.68,102.359h14.292a2.68,2.68,0,0,0,0-5.359H339.68a2.68,2.68,0,1,0,0,5.359Z" transform="translate(-276.797 -52.567)"/></g></svg>