<svg xmlns="http://www.w3.org/2000/svg" width="81.5" height="71.813" viewBox="0 0 81.5 71.813"><defs><style>.a{fill:#4a4a4a;stroke:#fff;stroke-width:1.5px;}</style></defs><path class="a" d="M77.671,9.376H56.406V7.031A7.039,7.039,0,0,0,49.375,0H30.625a7.039,7.039,0,0,0-7.031,7.031V9.375H2.344A2.35,2.35,0,0,0,0,11.719V63.281a7.039,7.039,0,0,0,7.031,7.031H72.969A7.039,7.039,0,0,0,80,63.281V11.759A2.275,2.275,0,0,0,77.671,9.376ZM28.281,7.031a2.347,2.347,0,0,1,2.344-2.344h18.75a2.347,2.347,0,0,1,2.344,2.344V9.375H28.281ZM74.4,14.063,67.126,35.9A2.34,2.34,0,0,1,64.9,37.5H51.719V35.156a2.344,2.344,0,0,0-2.344-2.344H30.625a2.344,2.344,0,0,0-2.344,2.344V37.5H15.1a2.34,2.34,0,0,1-2.223-1.6L5.6,14.063ZM47.031,37.5v4.688H32.969V37.5ZM75.313,63.281a2.347,2.347,0,0,1-2.344,2.344H7.031a2.347,2.347,0,0,1-2.344-2.344V26.161L8.427,37.38a7.021,7.021,0,0,0,6.67,4.808H28.281v2.344a2.344,2.344,0,0,0,2.344,2.344h18.75a2.344,2.344,0,0,0,2.344-2.344V42.188H64.9a7.021,7.021,0,0,0,6.67-4.808l3.74-11.218Zm0,0" transform="translate(0.75 0.75)"/></svg>