<svg xmlns="http://www.w3.org/2000/svg" width="204.434" height="63.961" viewBox="0 0 204.434 63.961"><defs><style>.a{fill:#fff;}</style></defs><g transform="translate(-10 -5.996)"><path class="a" d="M347.148,38.644V35.962a8.278,8.278,0,0,1,16.556.106h0v5.12q2.489.179,4.988.22V36.076a13.248,13.248,0,0,0-21.544-10.294V9.65H342.16V37.559C343.821,37.929,345.484,38.3,347.148,38.644Z" transform="translate(-272.759 -3)"/><path class="a" d="M737.56,76.551c1.679-.771,3.364-1.531,5.063-2.253V66H737.56Z" transform="translate(-597.449 -49.273)"/><path class="a" d="M164.424,93.413q1.177.08,2.355.179a8.21,8.21,0,0,1,7.672-5.066,8.114,8.114,0,0,1,8.174,7.259q1.205.225,2.411.47,1.314.266,2.627.547V96.7a13.244,13.244,0,0,0-26.024-3.444Q163.035,93.32,164.424,93.413Z" transform="translate(-124.522 -63.631)"/><path class="a" d="M509.894,102.043a8.368,8.368,0,0,1-1.661-5.029,8.253,8.253,0,0,1,16.5,0A8.587,8.587,0,0,1,524.4,99.4q2.682-.748,5.324-1.661v-.715a13.234,13.234,0,1,0-25.376,5.327Q507.129,102.279,509.894,102.043Z" transform="translate(-405.048 -63.938)"/><path class="a" d="M735.188,16.136a3.4,3.4,0,1,0-3.4-3.4h0A3.421,3.421,0,0,0,735.188,16.136Z" transform="translate(-592.711 -2.746)"/><path class="a" d="M32.647,21.815a15.435,15.435,0,0,0,5.242,3.861c.209.1,1.118.581,2.039,1.1.454.259,1.182.689,1.928,1.189l.016.013h0A13.365,13.365,0,0,1,43.9,29.589l.143.152q2.79-.2,5.592-.2c-.166-.358-.358-.715-.569-1.089h0l-.011-.018h0a16.3,16.3,0,0,0-4.414-4.66h0c-.179-.134-.358-.256-.536-.374h0l-.063-.043L43.8,23.19l-.088-.057-.268-.179-.059-.036-.29-.179-.027-.016c-.866-.511-1.652-.894-2.45-1.311l-.232-.125-.132-.073L40,21.073,39.879,21c-.123-.072-.247-.145-.372-.222l-.377-.238-.116-.077-.238-.156-.116-.08-.22-.147L38.322,20l-.193-.139-.113-.086-.179-.134-.106-.084-.163-.131-.1-.082-.15-.127-.091-.082-.132-.123-.086-.08-.125-.12-.077-.079-.116-.118-.072-.077-.106-.114-.066-.077-.095-.111-.057-.079-.084-.107-.055-.072-.075-.1-.05-.075-.068-.1-.045-.072-.059-.1-.039-.072-.052-.1-.034-.07-.045-.093-.025-.07-.038-.089-.027-.07-.032-.086-.023-.07-.032-.086-.027-.064a.3.3,0,0,0-.021-.079l-.016-.068-.016-.075a.132.132,0,0,0-.013-.068c-.013-.023,0-.048-.013-.072s0-.045-.011-.068,0-.045,0-.068a.179.179,0,0,1,0-.068v-.8a5.306,5.306,0,0,1,.22-1.3h-.023a4.226,4.226,0,0,1,.808-1.463h0a4.238,4.238,0,0,1,7.466,2.745v.232a1.372,1.372,0,0,1,.014.227v.016L48.833,14A9.281,9.281,0,0,0,38.359,6.086l-.19.03a8.173,8.173,0,0,0-1.72.447,9.285,9.285,0,0,0-6.08,8.718,9.5,9.5,0,0,0,.1,1.593A9.044,9.044,0,0,0,32.647,21.815Z" transform="translate(-16.724)"/><path class="a" d="M462.63,194v6.778h4.995v-6.568Q465.123,194.179,462.63,194Z" transform="translate(-371.685 -154.382)"/><path class="a" d="M538.053,169.78q-3.01,1.025-6.08,1.837a8.246,8.246,0,0,1-12.609,2.277q-3.013.3-6.053.392a13.248,13.248,0,0,0,11.456,6.6,13.1,13.1,0,0,0,10.551-5.2c1.592,2.336,3.822,4.617,6.74,5.095v-4.989A7.992,7.992,0,0,1,538.053,169.78Z" transform="translate(-413.302 -134.494)"/><path class="a" d="M698.965,123.343v4.079a8.38,8.38,0,0,1-8.355,8.405h-.05v5.063a13.473,13.473,0,0,0,13.468-13.468V121.07C702.329,121.807,700.653,122.572,698.965,123.343Z" transform="translate(-558.854 -94.495)"/><path class="a" d="M185.592,149.691q-2.5-.536-5.023-1.023a8.2,8.2,0,0,1-8.207,7.786,8.328,8.328,0,0,1-8.1-10.061q-2.5-.2-5.016-.293a13.336,13.336,0,0,0,13.112,15.346,13.1,13.1,0,0,0,10.562-5.209c1.592,2.336,3.822,4.617,6.74,5.095v-4.989A8.063,8.063,0,0,1,185.592,149.691Z" transform="translate(-122.434 -115.049)"/><path class="a" d="M342.16,173.72v10.351h4.988V174.8Q344.653,174.267,342.16,173.72Z" transform="translate(-272.759 -137.729)"/><path class="a" d="M28.277,145.823a5.353,5.353,0,0,1,.243.511h.018a7.244,7.244,0,0,1,.556,2.79,7.053,7.053,0,0,1-14.106.027,7.132,7.132,0,0,1,.1-1.218A49.083,49.083,0,0,0,10,149.651l.014.113a12.5,12.5,0,0,0,3.219,7.547,12.025,12.025,0,0,0,8.391,3.77,13.45,13.45,0,0,0,2.874-.163,12.161,12.161,0,0,0,9.559-11.885,11.576,11.576,0,0,0-.592-3.346Q30.873,145.676,28.277,145.823Z" transform="translate(0 -114.708)"/><path class="a" d="M857.936,255.21c.279.07.418.193.418.372v.127c0,.2-.154.329-.46.372-.2,0-.329-.147-.4-.436C857.557,255.351,857.7,255.21,857.936,255.21Zm0,1.49c.279.068.418.193.418.372v5.215c0,.216-.14.358-.418.4h-.023c-.22,0-.358-.147-.413-.436V257.2C857.534,256.866,857.681,256.7,857.936,256.7Z" transform="translate(-695.94 -204.646)"/><path class="a" d="M873.828,263.78c.275.07.413.193.413.372v.477a3.006,3.006,0,0,1,2.058-.849,2.892,2.892,0,0,1,2.175,1.023,2.809,2.809,0,0,1,.692,1.788v2.772c0,.19-.138.308-.413.358h-.023q-.413-.075-.413-.413v-2.414a2.058,2.058,0,0,0-1.407-2.146,2.441,2.441,0,0,0-.612-.088h-.064a2,2,0,0,0-1.826,1.221,3.07,3.07,0,0,0-.168,1.193v2.271c0,.213-.138.343-.413.39H873.8c-.22,0-.358-.147-.413-.436v-5.007C873.426,263.95,873.572,263.78,873.828,263.78Z" transform="translate(-708.988 -211.684)"/><path class="a" d="M915.573,264a2.648,2.648,0,0,1,2.35,1.356l.018.168v.023c0,.229-.143.358-.431.408q-.284,0-.581-.494a1.888,1.888,0,0,0-1.356-.581,1.763,1.763,0,0,0-1.57.948l-.018.111q0,.284.646.343,2.477.6,2.711.687a1.206,1.206,0,0,1,.622,1.035v.018q0,.894-1.314,1.64a2.905,2.905,0,0,1-1.2.256,2.682,2.682,0,0,1-2.216-1.227.445.445,0,0,1-.088-.238v-.127c0-.211.159-.329.477-.358q.2,0,.581.536a1.906,1.906,0,0,0,1.332.536,1.781,1.781,0,0,0,1.506-.86l.041-.129v-.023c0-.179-.129-.293-.385-.32a19.56,19.56,0,0,1-3.06-.8,1.211,1.211,0,0,1-.536-.989q0-.815,1.18-1.57A2.731,2.731,0,0,1,915.573,264Z" transform="translate(-741.596 -211.864)"/><path class="a" d="M951.434,263.87a2.979,2.979,0,0,1,2.949,2.949,2.954,2.954,0,0,1-2.885,2.949h-.179a2.985,2.985,0,0,1-2-.883v2.972c0,.179-.143.3-.431.358-.206,0-.342-.145-.408-.431V267.01A2.961,2.961,0,0,1,950.592,264,4.062,4.062,0,0,1,951.434,263.87Zm-2.087,2.885v.111a2.015,2.015,0,0,0,1.141,1.826,1.9,1.9,0,0,0,.883.215h.129a2.026,2.026,0,0,0,1.872-1.268,2.208,2.208,0,0,0,.15-.774v-.109a2.014,2.014,0,0,0-.894-1.658,2.076,2.076,0,0,0-1.209-.358,2.094,2.094,0,0,0-2.071,2.017Z" transform="translate(-770.649 -211.757)"/><path class="a" d="M991.13,255.21c.279.07.419.193.419.372v.127c0,.2-.154.329-.46.372-.2,0-.329-.147-.4-.436C990.745,255.351,990.9,255.21,991.13,255.21Zm0,1.49c.279.068.419.193.419.372v5.215c0,.216-.139.358-.419.4H991.1c-.22,0-.358-.147-.413-.436V257.2C990.728,256.866,990.874,256.7,991.13,256.7Z" transform="translate(-805.311 -204.646)"/><path class="a" d="M1007.693,263.51c.279.068.418.193.418.372v.483a3.032,3.032,0,0,1,2.053-.855,3.151,3.151,0,0,1,1.252.284.51.51,0,0,1,.179.358v.023q-.07.413-.413.413h-.023a3.259,3.259,0,0,0-.894-.191h-.127a1.979,1.979,0,0,0-1.885,1.332,2.386,2.386,0,0,0-.129.808V269.1c0,.216-.139.358-.418.4h-.043c-.22,0-.358-.147-.413-.436v-5.045C1007.288,263.678,1007.434,263.51,1007.693,263.51Z" transform="translate(-818.909 -211.462)"/><path class="a" d="M1040.556,255.21c.279.07.419.193.419.372v.127c0,.2-.154.329-.46.372-.2,0-.329-.147-.4-.436C1040.181,255.351,1040.326,255.21,1040.556,255.21Zm0,1.49c.279.068.419.193.419.372v5.215c0,.216-.14.358-.419.4h-.023c-.22,0-.358-.147-.413-.436V257.2C1040.157,256.866,1040.3,256.7,1040.556,256.7Z" transform="translate(-845.901 -204.646)"/><path class="a" d="M1056.468,263.78c.275.07.413.193.413.372v.477a3.006,3.006,0,0,1,2.058-.849,2.9,2.9,0,0,1,2.175,1.023,2.81,2.81,0,0,1,.692,1.788v2.772c0,.19-.138.308-.413.358h-.023q-.413-.075-.413-.413v-2.414a2.057,2.057,0,0,0-1.407-2.146,2.441,2.441,0,0,0-.612-.088h-.064a2,2,0,0,0-1.826,1.221,3.069,3.069,0,0,0-.168,1.193v2.271c0,.213-.138.343-.413.39h-.023c-.22,0-.358-.147-.413-.436v-5.007C1056.066,263.95,1056.212,263.78,1056.468,263.78Z" transform="translate(-858.966 -211.684)"/><path class="a" d="M1099.313,263.83a2.971,2.971,0,0,1,2.292,1.1,3,3,0,0,1,.669,1.733l-.023.733v2.611q0,.733-1.123,1.6a3.285,3.285,0,0,1-1.815.563,3.2,3.2,0,0,1-2.682-1.449,1.169,1.169,0,0,1-.191-.431v-.064c0-.19.131-.315.39-.372h.064q.292,0,.494.536a2.376,2.376,0,0,0,1.926.976,2.242,2.242,0,0,0,2.076-1.252l.041-.279v-.969a3,3,0,0,1-2.053.883h-.179a3,3,0,0,1-2.221-1.123,3.161,3.161,0,0,1-.628-1.838,2.946,2.946,0,0,1,1.273-2.42A3.011,3.011,0,0,1,1099.313,263.83Zm-2.118,2.892v.105a2.09,2.09,0,0,0,1.384,1.967,2.424,2.424,0,0,0,.669.111h.129a2.1,2.1,0,0,0,1.949-1.384,2.821,2.821,0,0,0,.1-.646v-.134a2.1,2.1,0,0,0-1.4-1.967,2.977,2.977,0,0,0-.674-.105h-.082a2.094,2.094,0,0,0-1.949,1.361,2.173,2.173,0,0,0-.127.692Z" transform="translate(-892.075 -211.725)"/><path class="a" d="M856.911,316.31h.064c.263.057.4.179.4.377v2.861a3,3,0,1,1,2.218,5.1h-.179a3.059,3.059,0,0,1-2.262-1.139,3.3,3.3,0,0,1-.64-2.024v-4.8C856.512,316.491,856.648,316.365,856.911,316.31Zm.46,5.252v.111a2.128,2.128,0,0,0,1.407,2,2.5,2.5,0,0,0,.68.111h.134a2.125,2.125,0,0,0,1.978-1.407,2.833,2.833,0,0,0,.111-.656v-.141a2.134,2.134,0,0,0-1.431-2,2.824,2.824,0,0,0-.68-.111h-.088a2.124,2.124,0,0,0-1.978,1.384,2.18,2.18,0,0,0-.136.715Z" transform="translate(-695.123 -254.819)"/><path class="a" d="M900.564,329.35c.279.07.419.193.419.372v.483a3.043,3.043,0,0,1,2.053-.855,3.151,3.151,0,0,1,1.252.284.509.509,0,0,1,.179.358v.023q-.07.413-.413.413h-.023a3.259,3.259,0,0,0-.894-.191h-.129a1.98,1.98,0,0,0-1.885,1.332,2.339,2.339,0,0,0-.127.808v2.582c0,.216-.14.349-.418.4h-.023c-.22,0-.358-.147-.413-.436v-5.063C900.167,329.518,900.308,329.35,900.564,329.35Z" transform="translate(-730.954 -265.527)"/><path class="a" d="M933.346,321.06c.279.07.418.193.418.372v.129c0,.2-.154.329-.46.372-.2,0-.329-.147-.4-.436C932.969,321.2,933.114,321.06,933.346,321.06Zm0,1.49c.279.07.418.193.418.372v5.224c0,.216-.14.349-.418.4h-.023c-.22,0-.358-.147-.413-.436v-5.056C932.946,322.714,933.089,322.548,933.346,322.55Z" transform="translate(-757.864 -258.72)"/><path class="a" d="M948.8,316.47h.093c.263.054.4.179.4.358v7.1h.46c.19,0,.313.139.372.418v.018q-.07.419-.419.418h-.849c-.225,0-.358-.147-.418-.436v-7.395C948.459,316.629,948.584,316.47,948.8,316.47Z" transform="translate(-770.608 -254.951)"/><path class="a" d="M966.852,316.47h.088c.263.054.4.179.4.358v7.1h.46c.19,0,.313.139.372.418v.018q-.07.419-.419.418H966.9c-.225,0-.358-.147-.419-.436v-7.395C966.51,316.629,966.635,316.47,966.852,316.47Z" transform="translate(-785.43 -254.951)"/><path class="a" d="M986.128,321.06c.279.07.419.193.419.372v.129c0,.2-.154.329-.46.372-.2,0-.329-.147-.4-.436C985.745,321.2,985.894,321.06,986.128,321.06Zm0,1.49c.279.07.419.193.419.372v5.224c0,.216-.14.349-.419.4H986.1c-.22,0-.358-.147-.413-.436v-5.056c.034-.334.179-.5.436-.5Z" transform="translate(-801.205 -258.72)"/><path class="a" d="M1003.391,329.61a3,3,0,0,1,2.67,1.652,3.345,3.345,0,0,1,.3,1.39v2.518c0,.213-.138.343-.413.39h-.023a.445.445,0,0,1-.413-.325v-.023l.023-.537v-.027a2.967,2.967,0,0,1-2.065.914h-.179a2.97,2.97,0,0,1-2.525-1.518,3.289,3.289,0,0,1-.358-1.477,2.952,2.952,0,0,1,1.629-2.629,3.146,3.146,0,0,1,1.352-.327Zm-2.128,2.931v.064a2.1,2.1,0,0,0,1.3,1.955,2.221,2.221,0,0,0,.739.152h.168a2.1,2.1,0,0,0,1.788-1.082,2.173,2.173,0,0,0,.256-.976v-.088a2.078,2.078,0,0,0-1.234-1.913,2.146,2.146,0,0,0-.894-.191h-.023a2.117,2.117,0,0,0-1.978,1.366,2.546,2.546,0,0,0-.125.715Z" transform="translate(-813.292 -265.741)"/><path class="a" d="M1043.688,329.61c.275.068.413.193.413.372v.478a3.006,3.006,0,0,1,2.058-.849,2.892,2.892,0,0,1,2.175,1.023,2.819,2.819,0,0,1,.692,1.8v2.763c0,.19-.138.308-.413.358h-.023q-.413-.075-.413-.413V332.72a2.058,2.058,0,0,0-1.407-2.146,2.444,2.444,0,0,0-.612-.088h-.064a2,2,0,0,0-1.826,1.221,3.072,3.072,0,0,0-.168,1.191v2.28c0,.213-.138.343-.413.39h-.023c-.22,0-.358-.147-.413-.436v-5.007C1043.287,329.78,1043.432,329.61,1043.688,329.61Z" transform="translate(-848.471 -265.741)"/><path class="a" d="M1086.413,329.52a3.015,3.015,0,0,1,2.094.867.456.456,0,0,1,.065.222v.023q-.075.413-.413.413h-.023a1.845,1.845,0,0,1-.7-.413,2.1,2.1,0,0,0-.96-.245h-.129a2.061,2.061,0,0,0-1.919,1.332,2.538,2.538,0,0,0-.152.808,2.128,2.128,0,0,0,1.332,1.967,2.419,2.419,0,0,0,.849.152,2.305,2.305,0,0,0,1.477-.612l.179-.041h.07c.213,0,.343.138.39.413v.018q0,.445-1.4.984a4.344,4.344,0,0,1-.7.088h-.179a3.019,3.019,0,0,1-2.239-1.134,3.171,3.171,0,0,1-.633-1.849,2.98,2.98,0,0,1,1.286-2.443A3.023,3.023,0,0,1,1086.413,329.52Z" transform="translate(-881.466 -265.667)"/><path class="a" d="M1122.782,329.55a2.974,2.974,0,0,1,2.683,1.635,3.018,3.018,0,0,1,.325,1.39v.111c-.05.29-.188.436-.413.436h-4.589a2.173,2.173,0,0,0,1.105,1.325,2.289,2.289,0,0,0,2.094-.134h.129c.26.05.39.179.39.4v.07q0,.536-1.565.739h-.152a2.928,2.928,0,0,1-2.57-1.5,3.06,3.06,0,0,1-.39-1.483,2.954,2.954,0,0,1,1.547-2.606A3.19,3.19,0,0,1,1122.782,329.55Zm-2.071,2.724h4.181a2.165,2.165,0,0,0-.524-1.157,2.092,2.092,0,0,0-1.413-.674h-.234a2.007,2.007,0,0,0-1.722,1.023A2.2,2.2,0,0,0,1120.712,332.274Z" transform="translate(-911.356 -265.692)"/><rect class="a" width="1.252" height="17.681" transform="translate(152.51 52.109)"/><path class="a" d="M239,293.255a6.865,6.865,0,1,1-6.865-6.865A6.865,6.865,0,0,1,239,293.255Zm-2.582,0a4.292,4.292,0,1,0-4.292,4.292A4.292,4.292,0,0,0,236.418,293.255Z" transform="translate(-176.773 -230.25)"/><path class="a" d="M168.825,295.54c-.145-1.8-1.252-3.026-3.3-3.641l-1.679-.5c-1.18-.358-1.726-.894-1.667-1.694a1.35,1.35,0,0,1,.528-1.041,1.956,1.956,0,0,1,1.241-.451,2.412,2.412,0,0,1,1.343.372,1.161,1.161,0,0,1,.526.875v.563h2.573v-.669a3.245,3.245,0,0,0-1.506-2.45,4.583,4.583,0,0,0-2.722-.833h-.215a4.827,4.827,0,0,0-3.09,1.125,3.328,3.328,0,0,0-1.225,2.758,3.6,3.6,0,0,0,3,3.45l1.7.476c1.307.37,1.937,1.019,1.921,1.981a1.788,1.788,0,0,1-.57,1.334,2.67,2.67,0,0,1-1.765.585h-.05a2.386,2.386,0,0,1-1.609-.656,2.59,2.59,0,0,1-.672-1.808H159.1v.268a4.058,4.058,0,0,0,1.318,3.017,4.955,4.955,0,0,0,3.239,1.334c.113,0,.225.009.334.009a5.117,5.117,0,0,0,3.364-1.189A3.624,3.624,0,0,0,168.825,295.54Z" transform="translate(-122.436 -229.992)"/><path class="a" d="M319.6,255.427l-.009.027h3.854v2.582h-3.872l.027,10.957H317.05V255.379a6.819,6.819,0,0,1,6.8-6.839h.036v2.547A4.335,4.335,0,0,0,319.6,255.427Z" transform="translate(-252.139 -199.169)"/><path class="a" d="M375.855,286.078v2.559a6.833,6.833,0,0,1-6.865-6.8V272.49h2.582V275.1h4.292v2.609h-4.292v4.065A4.333,4.333,0,0,0,375.855,286.078Z" transform="translate(-294.791 -218.836)"/><path class="a" d="M552.368,300.075a5.625,5.625,0,0,1-3.487-2.636,6.78,6.78,0,0,1-5.465,2.691,6.865,6.865,0,0,1,0-13.731,6.8,6.8,0,0,1,6.839,6.751v.663a4.2,4.2,0,0,0,2.114,3.68Zm-8.959-11.064a4.226,4.226,0,0,0-4.292,4.158v.072a4.271,4.271,0,1,0,8.541,0,4.2,4.2,0,0,0-4.176-4.229Z" transform="translate(-432.386 -230.258)"/><path class="a" d="M640.86,299.992V286.4h2.582v1.4a6.826,6.826,0,0,1,4.292-1.511v2.581a4.272,4.272,0,0,0-4.292,4.253v6.885Z" transform="translate(-518.042 -230.168)"/><path class="a" d="M701.24,298.337a6.813,6.813,0,1,1,1.94-3.652l-10.853.029a4.39,4.39,0,0,0,1.05,1.747,4.249,4.249,0,0,0,6,.088l.03-.029Zm-8.9-6.209H700.5a4.449,4.449,0,0,0-1.073-1.728,4.24,4.24,0,0,0-6.059.08,4.439,4.439,0,0,0-1.026,1.649Z" transform="translate(-558.117 -230.464)"/><path class="a" d="M439.161,287.05v8.52a2.518,2.518,0,0,1-5.036,0v-8.52h-2.5v8.52a2.52,2.52,0,0,1-5.038,0h0v-8.52h-2.5v8.52a5.018,5.018,0,0,0,8.793,3.312,5.018,5.018,0,0,0,8.791-3.312v-8.52Z" transform="translate(-340.029 -230.792)"/></g></svg>