<svg xmlns="http://www.w3.org/2000/svg" width="80.536" height="80.536" viewBox="0 0 80.536 80.536"><defs><style>.a{fill:#4a4a4a;stroke:#fff;stroke-width:1.5px;}</style></defs><g transform="translate(0.75 0.75)"><path class="a" d="M76.72,64.375h-1.4V64.21A14.649,14.649,0,0,0,67.832,51.4a11,11,0,1,0-14.466,0,14.653,14.653,0,0,0-7.483,12.81v.165H25.4A12.849,12.849,0,0,0,10.057,84.993,18.455,18.455,0,0,0,0,101.413v2.48a2.315,2.315,0,0,0,2.315,2.315H34.558a2.315,2.315,0,0,0,2.315-2.315v-2.48a18.391,18.391,0,0,0-.725-5.125H74.4v2.645a2.315,2.315,0,1,0,4.631,0V66.69A2.315,2.315,0,0,0,76.72,64.375ZM54.234,43.129A6.365,6.365,0,1,1,60.6,49.494,6.372,6.372,0,0,1,54.234,43.129ZM50.514,64.21a10.085,10.085,0,0,1,20.17,0v.165H50.514Zm-32.7,2.315a8.225,8.225,0,1,1-8.225,8.225A8.234,8.234,0,0,1,17.817,66.526Zm14.425,35.051H4.631v-.165a13.806,13.806,0,1,1,27.611,0Zm-6.2-16.957a12.83,12.83,0,0,0,3.268-15.614H74.4V91.657H34.073A18.563,18.563,0,0,0,26.045,84.62Zm0,0" transform="translate(0 -27.173)"/><path class="a" d="M8.516,30.673H42a2.317,2.317,0,0,0,1.927-3.6l-4.571-6.857V8.516A8.509,8.509,0,0,0,30.837,0H8.516A8.51,8.51,0,0,0,0,8.516V22.157A8.507,8.507,0,0,0,8.516,30.673ZM4.631,8.516A3.88,3.88,0,0,1,8.516,4.631H30.837a3.875,3.875,0,0,1,3.885,3.885v12.4a2.314,2.314,0,0,0,.389,1.284l2.56,3.84H8.516a3.875,3.875,0,0,1-3.885-3.885Zm0,0"/><path class="a" d="M66.581,60.865H81.462a2.315,2.315,0,0,0,0-4.631H66.581a2.315,2.315,0,0,0,0,4.631Zm0,0" transform="translate(-54.345 -47.554)"/><path class="a" d="M66.581,117.1h7.441a2.315,2.315,0,0,0,0-4.631H66.581a2.315,2.315,0,1,0,0,4.631Zm0,0" transform="translate(-54.345 -95.107)"/></g></svg>